<mxfile host="Electron" agent="Mozilla/5.0 (X11; Linux x86_64) AppleWebKit/537.36 (KHTML, like Gecko) draw.io/24.7.5 Chrome/126.0.6478.183 Electron/31.3.0 Safari/537.36" version="24.7.5">
  <diagram name="Page-1" id="2YBvvXClWsGukQMizWep">
    <mxGraphModel dx="1310" dy="836" grid="1" gridSize="10" guides="1" tooltips="1" connect="1" arrows="1" fold="1" page="1" pageScale="1" pageWidth="850" pageHeight="1100" math="0" shadow="0">
      <root>
        <mxCell id="0" />
        <mxCell id="1" parent="0" />
        <mxCell id="luV_bp6FPEFmNrwpUwOJ-17" value="" style="rounded=0;whiteSpace=wrap;html=1;" vertex="1" parent="1">
          <mxGeometry x="90" y="400" width="370" height="80" as="geometry" />
        </mxCell>
        <mxCell id="luV_bp6FPEFmNrwpUwOJ-1" value="Client" style="html=1;whiteSpace=wrap;" vertex="1" parent="1">
          <mxGeometry x="110" y="140" width="110" height="50" as="geometry" />
        </mxCell>
        <mxCell id="luV_bp6FPEFmNrwpUwOJ-2" value="Server" style="html=1;whiteSpace=wrap;" vertex="1" parent="1">
          <mxGeometry x="350" y="140" width="110" height="50" as="geometry" />
        </mxCell>
        <mxCell id="luV_bp6FPEFmNrwpUwOJ-3" value="" style="endArrow=none;dashed=1;html=1;rounded=0;entryX=0.5;entryY=1;entryDx=0;entryDy=0;" edge="1" parent="1" source="luV_bp6FPEFmNrwpUwOJ-5" target="luV_bp6FPEFmNrwpUwOJ-1">
          <mxGeometry width="50" height="50" relative="1" as="geometry">
            <mxPoint x="165" y="420" as="sourcePoint" />
            <mxPoint x="230" y="310" as="targetPoint" />
          </mxGeometry>
        </mxCell>
        <mxCell id="luV_bp6FPEFmNrwpUwOJ-4" value="" style="endArrow=none;dashed=1;html=1;rounded=0;entryX=0.5;entryY=1;entryDx=0;entryDy=0;" edge="1" parent="1" source="luV_bp6FPEFmNrwpUwOJ-8" target="luV_bp6FPEFmNrwpUwOJ-2">
          <mxGeometry width="50" height="50" relative="1" as="geometry">
            <mxPoint x="405" y="420" as="sourcePoint" />
            <mxPoint x="460" y="280" as="targetPoint" />
          </mxGeometry>
        </mxCell>
        <mxCell id="luV_bp6FPEFmNrwpUwOJ-6" value="" style="endArrow=none;dashed=1;html=1;rounded=0;entryX=0.5;entryY=1;entryDx=0;entryDy=0;" edge="1" parent="1" target="luV_bp6FPEFmNrwpUwOJ-5">
          <mxGeometry width="50" height="50" relative="1" as="geometry">
            <mxPoint x="165" y="420" as="sourcePoint" />
            <mxPoint x="165" y="190" as="targetPoint" />
          </mxGeometry>
        </mxCell>
        <mxCell id="luV_bp6FPEFmNrwpUwOJ-5" value="" style="rounded=0;whiteSpace=wrap;html=1;" vertex="1" parent="1">
          <mxGeometry x="160" y="250" width="10" height="380" as="geometry" />
        </mxCell>
        <mxCell id="luV_bp6FPEFmNrwpUwOJ-7" value="onConfirmBtn()" style="endArrow=classic;html=1;rounded=0;exitX=0.8;exitY=0.079;exitDx=0;exitDy=0;exitPerimeter=0;entryX=1.1;entryY=0.161;entryDx=0;entryDy=0;verticalAlign=middle;labelPosition=right;verticalLabelPosition=middle;align=left;entryPerimeter=0;" edge="1" parent="1" source="luV_bp6FPEFmNrwpUwOJ-5" target="luV_bp6FPEFmNrwpUwOJ-5">
          <mxGeometry width="50" height="50" relative="1" as="geometry">
            <mxPoint x="220" y="320" as="sourcePoint" />
            <mxPoint x="200" y="340" as="targetPoint" />
            <Array as="points">
              <mxPoint x="200" y="280" />
              <mxPoint x="200" y="310" />
            </Array>
          </mxGeometry>
        </mxCell>
        <mxCell id="luV_bp6FPEFmNrwpUwOJ-9" value="" style="endArrow=none;dashed=1;html=1;rounded=0;entryX=0.5;entryY=1;entryDx=0;entryDy=0;" edge="1" parent="1" target="luV_bp6FPEFmNrwpUwOJ-8">
          <mxGeometry width="50" height="50" relative="1" as="geometry">
            <mxPoint x="405" y="420" as="sourcePoint" />
            <mxPoint x="405" y="190" as="targetPoint" />
          </mxGeometry>
        </mxCell>
        <mxCell id="luV_bp6FPEFmNrwpUwOJ-8" value="" style="rounded=0;whiteSpace=wrap;html=1;" vertex="1" parent="1">
          <mxGeometry x="400" y="220" width="10" height="420" as="geometry" />
        </mxCell>
        <mxCell id="luV_bp6FPEFmNrwpUwOJ-14" value="validateData()" style="endArrow=classic;html=1;rounded=0;exitX=0.8;exitY=0.079;exitDx=0;exitDy=0;exitPerimeter=0;entryX=1.1;entryY=0.161;entryDx=0;entryDy=0;verticalAlign=middle;labelPosition=right;verticalLabelPosition=middle;align=left;entryPerimeter=0;" edge="1" parent="1">
          <mxGeometry width="50" height="50" relative="1" as="geometry">
            <mxPoint x="170" y="330" as="sourcePoint" />
            <mxPoint x="173" y="361" as="targetPoint" />
            <Array as="points">
              <mxPoint x="202" y="330" />
              <mxPoint x="202" y="360" />
            </Array>
          </mxGeometry>
        </mxCell>
        <mxCell id="luV_bp6FPEFmNrwpUwOJ-15" value="pushMonitoringCenter(center, areas)" style="endArrow=classic;html=1;rounded=0;exitX=1;exitY=0.421;exitDx=0;exitDy=0;exitPerimeter=0;entryX=0;entryY=0.452;entryDx=0;entryDy=0;entryPerimeter=0;verticalAlign=top;" edge="1" parent="1" source="luV_bp6FPEFmNrwpUwOJ-5" target="luV_bp6FPEFmNrwpUwOJ-8">
          <mxGeometry width="50" height="50" relative="1" as="geometry">
            <mxPoint x="270" y="460" as="sourcePoint" />
            <mxPoint x="320" y="410" as="targetPoint" />
          </mxGeometry>
        </mxCell>
        <mxCell id="luV_bp6FPEFmNrwpUwOJ-18" value="&lt;font style=&quot;font-size: 8px;&quot;&gt;if new monitoringCenter&lt;/font&gt;" style="text;html=1;align=left;verticalAlign=middle;whiteSpace=wrap;rounded=0;fontSize=8;" vertex="1" parent="1">
          <mxGeometry x="90" y="400" width="40" height="20" as="geometry" />
        </mxCell>
        <mxCell id="luV_bp6FPEFmNrwpUwOJ-19" value="boolean result" style="endArrow=classic;html=1;rounded=0;exitX=0;exitY=0.557;exitDx=0;exitDy=0;exitPerimeter=0;entryX=0.95;entryY=0.533;entryDx=0;entryDy=0;entryPerimeter=0;dashed=1;verticalAlign=top;" edge="1" parent="1" source="luV_bp6FPEFmNrwpUwOJ-8" target="luV_bp6FPEFmNrwpUwOJ-5">
          <mxGeometry width="50" height="50" relative="1" as="geometry">
            <mxPoint x="310" y="610" as="sourcePoint" />
            <mxPoint x="360" y="560" as="targetPoint" />
          </mxGeometry>
        </mxCell>
        <mxCell id="luV_bp6FPEFmNrwpUwOJ-21" value="pushOperator(operator)" style="endArrow=classic;html=1;rounded=0;exitX=1;exitY=0.421;exitDx=0;exitDy=0;exitPerimeter=0;entryX=0;entryY=0.452;entryDx=0;entryDy=0;entryPerimeter=0;verticalAlign=top;" edge="1" parent="1">
          <mxGeometry width="50" height="50" relative="1" as="geometry">
            <mxPoint x="170" y="540" as="sourcePoint" />
            <mxPoint x="400" y="540" as="targetPoint" />
          </mxGeometry>
        </mxCell>
        <mxCell id="luV_bp6FPEFmNrwpUwOJ-22" value="boolean result" style="endArrow=classic;html=1;rounded=0;exitX=0;exitY=0.557;exitDx=0;exitDy=0;exitPerimeter=0;entryX=0.95;entryY=0.533;entryDx=0;entryDy=0;entryPerimeter=0;dashed=1;verticalAlign=top;" edge="1" parent="1">
          <mxGeometry width="50" height="50" relative="1" as="geometry">
            <mxPoint x="400" y="581" as="sourcePoint" />
            <mxPoint x="170" y="580" as="targetPoint" />
          </mxGeometry>
        </mxCell>
      </root>
    </mxGraphModel>
  </diagram>
</mxfile>
